<svg width="602" height="123" viewBox="0 0 602 123" fill="none" xmlns="http://www.w3.org/2000/svg">
<g clip-path="url(#clip0)">
<path opacity="0.7" d="M16.5 113.246H135.25C148.243 113.246 160.43 106.976 167.95 96.429C175.47 85.882 187.647 79.612 200.65 79.612H618.5M386.302 138.297H327.442M482.218 29.613C480.546 29.6119 478.943 28.9472 477.76 27.7648C476.578 26.5825 475.913 24.9791 475.912 23.307C475.913 21.6347 476.577 20.0311 477.76 18.8485C478.942 17.6659 480.546 17.0011 482.218 17C483.89 17.0011 485.493 17.6658 486.676 18.8482C487.858 20.0305 488.523 21.6339 488.524 23.306C488.523 24.9781 487.858 26.5815 486.676 27.7638C485.493 28.9462 483.89 29.6119 482.218 29.613Z" stroke="#F2FFF8"/>
</g>
<defs>
<clipPath id="clip0">
<rect width="602" height="123" fill="white"/>
</clipPath>
</defs>
</svg>
